<svg width="26" height="26" viewBox="0 0 26 26" fill="none" xmlns="http://www.w3.org/2000/svg">
<path d="M23 6.92858C23 9.04239 21.2556 10.7619 19.1111 10.7619C16.9667 10.7619 15.2222 9.04239 15.2222 6.92858C15.2222 4.81477 16.9667 3.09524 19.1111 3.09524C21.2556 3.09524 23 4.81477 23 6.92858ZM20.7778 12.7224C20.2222 12.8648 19.6667 12.9524 19.1111 12.9524C17.4912 12.9495 15.9386 12.3139 14.7931 11.1849C13.6477 10.0558 13.0029 8.5253 13 6.92858C13 5.31858 13.6444 3.86191 14.6667 2.77762C14.465 2.53398 14.2108 2.33774 13.9225 2.20322C13.6341 2.0687 13.319 1.99927 13 2.00001C11.7778 2.00001 10.7778 2.98572 10.7778 4.19048V4.5081C7.47778 5.47191 5.22222 8.46191 5.22222 11.8571V18.4286L3 20.619V21.7143H23V20.619L20.7778 18.4286V12.7224ZM13 25C14.2333 25 15.2222 24.0252 15.2222 22.8095H10.7778C10.7778 23.3905 11.0119 23.9476 11.4287 24.3584C11.8454 24.7692 12.4106 25 13 25Z" fill="white"/>
</svg>
