<svg display="none" xmlns="http://www.w3.org/2000/svg">
<symbol id="logo"> 
<g clip-path="url(#clip0_508_41)">
<path d="M62.2542 26.0729C61.7416 26.6077 61.2099 27.0871 60.6593 27.5112C60.1087 27.9353 59.5011 28.3041 58.8365 28.6176C58.1909 28.9126 57.4789 29.1339 56.7004 29.2814C55.9219 29.4474 55.0485 29.5304 54.0802 29.5304C52.6181 29.5304 51.2605 29.2722 50.0074 28.7559C48.7542 28.2396 47.6719 27.5389 46.7605 26.6538C45.8491 25.7502 45.1371 24.6899 44.6245 23.4729C44.1118 22.2559 43.8555 20.9559 43.8555 19.5729V19.5176C43.8555 18.1346 44.1118 16.8438 44.6245 15.6452C45.1371 14.4282 45.8491 13.3679 46.7605 12.4644C47.6719 11.5424 48.7637 10.8233 50.0359 10.3069C51.308 9.7722 52.7131 9.50482 54.2511 9.50482C55.1814 9.50482 56.0264 9.57858 56.7859 9.7261C57.5644 9.87362 58.2669 10.0765 58.8935 10.3346C59.5201 10.5928 60.0992 10.9062 60.6308 11.275C61.1625 11.6438 61.6561 12.0495 62.1118 12.4921L59.3207 15.6176C58.5422 14.9353 57.7447 14.4006 56.9283 14.0133C56.1308 13.6261 55.2289 13.4325 54.2226 13.4325C53.3871 13.4325 52.6086 13.5892 51.8871 13.9027C51.1846 14.2162 50.577 14.6495 50.0643 15.2027C49.5517 15.7559 49.1529 16.4013 48.8681 17.1389C48.5833 17.858 48.4409 18.6325 48.4409 19.4623V19.5176C48.4409 20.3474 48.5833 21.1311 48.8681 21.8687C49.1529 22.6062 49.5422 23.2516 50.0359 23.8048C50.5485 24.358 51.1561 24.8006 51.8586 25.1325C52.5802 25.446 53.3681 25.6027 54.2226 25.6027C55.3618 25.6027 56.3207 25.3999 57.0992 24.9942C57.8966 24.5885 58.6846 24.0353 59.4631 23.3346L62.2542 26.0729Z" fill="white"/>
<path d="M81.0028 29.1984H75.8762L71.604 23.0027H68.1578V29.1984H63.7717V9.83674H72.8857C75.2591 9.83674 77.1009 10.3991 78.411 11.524C79.7401 12.6488 80.4047 14.2162 80.4047 16.2261V16.2814C80.4047 17.8488 80.0059 19.1304 79.2085 20.1261C78.43 21.1034 77.4047 21.8226 76.1325 22.2835L81.0028 29.1984ZM75.9616 16.5027V16.4474C75.9616 15.5254 75.6578 14.8339 75.0502 14.3729C74.4426 13.9119 73.5977 13.6814 72.5154 13.6814H68.1578V19.241H72.6009C73.6831 19.241 74.5091 18.9921 75.0787 18.4942C75.6673 17.9963 75.9616 17.3325 75.9616 16.5027Z" fill="white"/>
<path d="M97.5405 29.1984H82.3601V9.83674H97.3981V13.6261H86.7177V17.5538H96.1164V21.3431H86.7177V25.4091H97.5405V29.1984Z" fill="white"/>
<path d="M119.753 19.5176C119.753 20.9006 119.488 22.2006 118.956 23.4176C118.424 24.6162 117.684 25.6765 116.734 26.5984C115.804 27.502 114.684 28.2211 113.374 28.7559C112.083 29.2722 110.668 29.5304 109.13 29.5304C107.592 29.5304 106.178 29.2722 104.886 28.7559C103.595 28.2211 102.475 27.5112 101.526 26.6261C100.595 25.7226 99.8642 24.6715 99.3326 23.4729C98.8199 22.2559 98.5636 20.9559 98.5636 19.5729V19.5176C98.5636 18.1346 98.8294 16.8438 99.361 15.6452C99.8927 14.4282 100.624 13.3679 101.554 12.4644C102.503 11.5424 103.624 10.8233 104.915 10.3069C106.225 9.7722 107.649 9.50482 109.187 9.50482C110.725 9.50482 112.14 9.7722 113.431 10.3069C114.722 10.8233 115.833 11.5332 116.763 12.4367C117.712 13.3218 118.443 14.3729 118.956 15.5899C119.488 16.7885 119.753 18.0793 119.753 19.4623V19.5176ZM115.168 19.5729V19.5176C115.168 18.6878 115.016 17.9041 114.712 17.1665C114.428 16.4289 114.01 15.7835 113.459 15.2304C112.928 14.6772 112.291 14.2438 111.551 13.9304C110.81 13.5984 110.003 13.4325 109.13 13.4325C108.238 13.4325 107.421 13.5892 106.681 13.9027C105.959 14.2162 105.333 14.6495 104.801 15.2027C104.288 15.7559 103.88 16.4013 103.576 17.1389C103.291 17.858 103.149 18.6325 103.149 19.4623V19.5176C103.149 20.3474 103.291 21.1311 103.576 21.8687C103.88 22.6062 104.298 23.2516 104.829 23.8048C105.38 24.358 106.016 24.8006 106.738 25.1325C107.478 25.446 108.295 25.6027 109.187 25.6027C110.06 25.6027 110.867 25.446 111.608 25.1325C112.348 24.819 112.975 24.3857 113.488 23.8325C114.019 23.2793 114.428 22.6431 114.712 21.924C115.016 21.1864 115.168 20.4027 115.168 19.5729Z" fill="white"/>
<path d="M139.366 29.1984H135.635L125.98 16.8899V29.1984H121.651V9.83674H125.695L135.037 21.758V9.83674H139.366V29.1984Z" fill="white"/>
<path d="M9.828 36.8535L12.4366 39L11.4515 37.2052C9.89741 34.3736 9.08832 31.2513 9.08832 28.0855V17.9018C9.08832 17.0122 9.24574 16.1284 9.55454 15.2845C10.4187 12.9227 12.845 11.3296 15.5778 11.3296H16.4704C19.2032 11.3296 21.6295 12.9227 22.4936 15.2845C22.8024 16.1284 22.9599 17.0122 22.9599 17.9018V28.0855C22.9599 31.2513 22.1508 34.3736 20.5967 37.2052L19.6115 39L22.2202 36.8535C25.3595 34.2704 27.6311 30.9298 28.7717 27.2188L32.0482 16.5587H30.374V14.5056C30.374 10.6585 28.6964 6.96894 25.7103 4.2486L24.5979 3.23526C22.324 1.16376 19.2399 0 16.0241 0C12.8083 0 9.72415 1.16378 7.4502 3.23531L6.3379 4.2486C3.35176 6.96894 1.67416 10.6585 1.67416 14.5056V16.5587H0L3.27649 27.2188C4.41711 30.9298 6.68869 34.2704 9.828 36.8535Z" fill="white"/>
</g>
</symbol>
<symbol id="metamask"> 
  <path d="M20.4414 2.08997L11.9453 8.1266L13.5252 4.56904L20.4414 2.08997Z" fill="#E17726"/>
  <path d="M1.57867 2.09662L8.47622 4.56899L9.97644 8.17328L1.57867 2.09662ZM17.0219 14.9278L20.7769 14.9965L19.4646 19.2775L14.8825 18.0661L17.0219 14.9278ZM4.97772 14.9278L7.1092 18.0661L2.53468 19.2777L1.23047 14.9965L4.97772 14.9278Z" fill="#E27625"/>
  <path d="M9.7726 7.25606L9.92615 12.0156L5.33398 11.8149L6.64013 9.92261L6.65681 9.90437L9.7726 7.25606ZM12.1798 7.20282L15.3431 9.90455L15.3595 9.9228L16.6657 11.8149L12.0747 12.0156L12.1798 7.20282ZM7.24367 14.9424L9.75108 16.8184L6.83847 18.1687L7.24367 14.9424ZM14.7566 14.9422L15.1535 18.1687L12.249 16.8182L14.7566 14.9422Z" fill="#E27625"/>
  <path d="M12.3122 16.6407L15.2595 18.0112L12.5179 19.2624L12.5464 18.4354L12.3122 16.6407ZM9.68496 16.6413L9.46006 18.4219L9.47848 19.2615L6.73047 18.0112L9.68496 16.6413Z" fill="#D5BFB2"/>
  <path d="M8.83433 12.6364L9.6046 14.1908L6.98242 13.4532L8.83433 12.6364ZM13.1644 12.6366L15.0252 13.4532L12.3945 14.1906L13.1644 12.6366Z" fill="#233447"/>
  <path d="M7.44371 14.9259L7.01989 18.271L4.74805 14.9991L7.44371 14.9259ZM14.5555 14.9259L17.2514 14.9991L14.971 18.2712L14.5555 14.9259ZM16.7318 11.6251L14.7697 13.5451L13.2573 12.8814L12.533 14.3432L12.0584 11.8293L16.7318 11.6251ZM5.26647 11.6251L9.94065 11.8293L9.46584 14.3432L8.74152 12.8815L7.23684 13.5451L5.26647 11.6251Z" fill="#CC6228"/>
  <path d="M5.13477 11.2316L7.35427 13.3944L7.43124 15.5296L5.13477 11.2316ZM16.8676 11.2277L14.5671 15.5333L14.6535 13.3944L16.8676 11.2277ZM9.83259 11.3633L9.92197 11.9033L10.1428 13.2484L10.0009 17.3796L9.32987 14.0609L9.32968 14.0266L9.83259 11.3633ZM12.1663 11.3558L12.6706 14.0266L12.6704 14.0609L11.9978 17.388L11.9711 16.5558L11.8662 13.2239L12.1663 11.3558Z" fill="#E27525"/>
  <path d="M14.8499 13.3087L14.7748 15.1639L12.4332 16.9158L11.9599 16.5947L12.4904 13.9702L14.8499 13.3087ZM7.15625 13.3089L9.50759 13.9704L10.038 16.5947L9.56478 16.9158L7.22314 15.1637L7.15625 13.3089Z" fill="#F5841F"/>
  <path d="M6.2832 17.6019L9.27879 18.9649L9.26619 18.3827L9.51687 18.1716H12.4818L12.7414 18.3822L12.7222 18.9638L15.699 17.6053L14.2506 18.7547L12.4991 19.9099H9.49283L7.74251 18.7499L6.2832 17.6019Z" fill="#C0AC9D"/>
  <path d="M12.0974 16.4595L12.521 16.7467L12.7692 18.6483L12.4099 18.3571H9.5888L9.23633 18.6543L9.47654 16.7469L9.90016 16.4595H12.0974Z" fill="#161616"/>
  <path d="M19.8799 2.25787L20.8997 5.19567L20.2628 8.16624L20.7163 8.50228L20.1026 8.95189L20.5639 9.29388L19.9532 9.82801L20.3281 10.0888L19.3329 11.2048L15.2515 10.0637L15.2162 10.0455L12.2751 7.66301L19.8799 2.25787ZM2.1194 2.25787L9.72441 7.66301L6.78311 10.0455L6.74782 10.0637L2.66633 11.2048L1.67135 10.0888L2.04592 9.8282L1.4354 9.29388L1.89586 8.95226L1.27294 8.50135L1.74367 8.16512L1.09961 5.19586L2.1194 2.25787Z" fill="#763E1A"/>
  <path d="M15.0527 9.81371L19.3773 11.0229L20.7823 15.1809H17.0758L14.5217 15.2118L16.379 11.7354L15.0527 9.81371ZM6.94845 9.81371L5.62175 11.7354L7.47947 15.2118L4.9267 15.1809H1.22656L2.62383 11.0229L6.94845 9.81371ZM13.7374 4.5495L12.5276 7.68669L12.2709 11.9245L12.1728 13.2529L12.1651 16.6462H9.83605L9.82849 13.2592L9.72999 11.9234L9.47311 7.68669L8.26371 4.5495H13.7374Z" fill="#F5841F"/>
</symbol>
<symbol id="coinbase"> 
  <path fill-rule="evenodd" clip-rule="evenodd" d="M16.2628 3.54116C18.1129 4.77052 19.442 6.62326 20 8.75001H15.5679C15.1877 8.02626 14.6272 7.4018 13.9313 6.93935C12.9217 6.26851 11.6973 5.98518 10.4898 6.14298C9.28228 6.30079 8.17544 6.88877 7.37879 7.79565C6.58216 8.70252 6.15099 9.86535 6.1669 11.064C6.18282 12.2627 6.64472 13.414 7.46518 14.3002C8.28563 15.1862 9.40771 15.7456 10.619 15.8722C11.8303 15.9989 13.0468 15.6841 14.0381 14.9876C14.6857 14.5326 15.2079 13.9352 15.5679 13.25H20C19.4633 15.2959 18.211 17.0938 16.4591 18.3247C14.6382 19.6042 12.4037 20.1823 10.1787 19.9496C7.95368 19.7169 5.8926 18.6895 4.38553 17.0619C2.87847 15.4343 2.03002 13.3194 2.00078 11.1176C1.97154 8.91581 2.76354 6.77986 4.22687 5.11405C5.69019 3.44825 7.7233 2.3682 9.94135 2.07834C12.1594 1.78848 14.4084 2.30892 16.2628 3.54116Z" fill="#0052FF"/>
</symbol>
<symbol id="mission-icon"> 
<path id="polygon" d="M0 22.5204C0 20.3467 1.1756 18.343 3.07307 17.2827L31.0731 1.63563C32.892 0.619181 35.108 0.619184 36.9269 1.63564L64.9269 17.2827C66.8244 18.343 68 20.3467 68 22.5204V53.4796C68 55.6533 66.8244 57.657 64.9269 58.7173L36.9269 74.3644C35.108 75.3808 32.892 75.3808 31.0731 74.3644L3.07307 58.7173C1.1756 57.657 0 55.6533 0 53.4796V22.5204Z" fill="#13171D"/>
<path opacity="0.1" d="M6 26.0366C6 23.8543 7.18486 21.8441 9.0941 20.7872L31.0941 8.60862C32.9021 7.60777 35.0979 7.60777 36.9059 8.60862L58.9059 20.7872C60.8151 21.8441 62 23.8543 62 26.0366V49.9634C62 52.1457 60.8151 54.1559 58.9059 55.2128L36.9059 67.3914C35.0979 68.3922 32.9021 68.3922 31.0941 67.3914L9.0941 55.2128C7.18486 54.1559 6 52.1457 6 49.9634V26.0366Z" fill="white"/>
</symbol>


</svg>

